<svg width="19" height="18" viewBox="0 0 19 18" fill="none" xmlns="http://www.w3.org/2000/svg">
<g clip-path="url(#clip0)">
<path d="M9.81866 0C14.7897 0 18.8187 4.02979 18.8187 9C18.8187 13.971 14.7897 18 9.81866 18C4.84845 18 0.818665 13.9706 0.818665 9C0.818665 4.02979 4.84845 0 9.81866 0Z" fill="#F5AC37"/>
<path d="M10.1507 9.63553H13.5706C13.6435 9.63553 13.6779 9.63553 13.6832 9.53995C13.7111 9.19205 13.7111 8.84212 13.6832 8.49382C13.6832 8.42618 13.6496 8.39824 13.5763 8.39824H6.77017C6.68593 8.39824 6.66325 8.42618 6.66325 8.50516V9.50633C6.66325 9.63553 6.66325 9.63553 6.79812 9.63553H10.1507V9.63553ZM13.3013 7.22818C13.311 7.20267 13.311 7.17472 13.3013 7.14961C13.2442 7.02527 13.1765 6.90661 13.098 6.79523C12.9797 6.60488 12.8404 6.42951 12.6816 6.27197C12.6067 6.17679 12.52 6.09134 12.4228 6.01884C11.936 5.60452 11.3572 5.3113 10.7352 5.16388C10.4213 5.09341 10.1005 5.05979 9.77895 5.06262H6.75843C6.67418 5.06262 6.66284 5.09624 6.66284 5.16955V7.16622C6.66284 7.25046 6.66284 7.27314 6.76977 7.27314H13.2608C13.2608 7.27314 13.3171 7.2618 13.3284 7.22818H13.3009H13.3013ZM13.3013 10.8056C13.2057 10.7951 13.1093 10.7951 13.0137 10.8056H6.77584C6.6916 10.8056 6.66325 10.8056 6.66325 10.9182V12.8703C6.66325 12.9602 6.66325 12.9829 6.77584 12.9829H9.65582C9.79353 12.9934 9.93123 12.9837 10.0661 12.9549C10.4841 12.925 10.8951 12.8342 11.2872 12.6848C11.4297 12.6354 11.5674 12.571 11.6975 12.4936H11.7367C12.4119 12.1425 12.9603 11.5909 13.3061 10.9137C13.3061 10.9137 13.3454 10.8287 13.3013 10.8064V10.8056ZM5.53288 13.995V13.9614V12.6508V12.2065V10.8846C5.53288 10.8113 5.53288 10.8003 5.44297 10.8003H4.22229C4.15465 10.8003 4.12671 10.8003 4.12671 10.7104V9.6416H5.43163C5.50453 9.6416 5.53288 9.6416 5.53288 9.54602V8.48855C5.53288 8.42092 5.53288 8.40431 5.44297 8.40431H4.22229C4.15465 8.40431 4.12671 8.40431 4.12671 8.3144V7.32457C4.12671 7.26261 4.12671 7.246 4.21662 7.246H5.42596C5.5102 7.246 5.53288 7.246 5.53288 7.13908V4.10722C5.53288 4.01731 5.53288 3.99463 5.64547 3.99463H9.864C10.1702 4.00678 10.4743 4.04039 10.7753 4.09588C11.3953 4.2105 11.9911 4.43203 12.5358 4.74834C12.8971 4.96097 13.2296 5.21774 13.5256 5.51339C13.7484 5.74465 13.9493 5.99494 14.1275 6.26144C14.3045 6.53157 14.4515 6.82034 14.5669 7.12207C14.5811 7.20064 14.6564 7.2537 14.735 7.24033H15.7418C15.871 7.24033 15.871 7.24033 15.8767 7.36426V8.28686C15.8767 8.37677 15.8431 8.39945 15.7528 8.39945H14.9764C14.8978 8.39945 14.8751 8.39945 14.8808 8.5007C14.9116 8.84334 14.9116 9.18719 14.8808 9.52982C14.8808 9.6254 14.8808 9.63674 14.9881 9.63674H15.8763C15.9156 9.68737 15.8763 9.73799 15.8763 9.78902C15.882 9.85423 15.882 9.92024 15.8763 9.98545V10.6663C15.8763 10.7618 15.8483 10.7902 15.7637 10.7902H14.7006C14.6264 10.776 14.5543 10.8234 14.5373 10.8971C14.2842 11.5552 13.8792 12.1453 13.3559 12.6184C13.1648 12.7905 12.9639 12.9525 12.7541 13.102C12.5289 13.2316 12.3098 13.3664 12.079 13.4733C11.6541 13.6645 11.2086 13.8054 10.7514 13.895C10.3172 13.9727 9.87696 14.0079 9.4351 14.0019H5.53126V13.9962L5.53288 13.995Z" fill="#FEFEFD"/>
</g>
<defs>
<clipPath id="clip0">
<rect width="18" height="18" fill="white" transform="translate(0.818665)"/>
</clipPath>
</defs>
</svg>
