<svg width="20" height="20" viewBox="0 0 20 20" fill="none" xmlns="http://www.w3.org/2000/svg">
<path d="M12.5 0.833313H7.5V2.49998H12.5V0.833313ZM9.16667 11.6666H10.8333V6.66665H9.16667V11.6666ZM15.8583 6.15831L17.0417 4.97498C16.6833 4.54998 16.2917 4.14998 15.8667 3.79998L14.6833 4.98331C13.3917 3.94998 11.7667 3.33331 10 3.33331C5.85833 3.33331 2.5 6.69165 2.5 10.8333C2.5 14.975 5.85 18.3333 10 18.3333C14.15 18.3333 17.5 14.975 17.5 10.8333C17.5 9.06665 16.8833 7.44165 15.8583 6.15831ZM10 16.6666C6.775 16.6666 4.16667 14.0583 4.16667 10.8333C4.16667 7.60831 6.775 4.99998 10 4.99998C13.225 4.99998 15.8333 7.60831 15.8333 10.8333C15.8333 14.0583 13.225 16.6666 10 16.6666Z" fill="#F2F2F2"/>
</svg>
